<svg width="57" height="57" viewBox="0 0 57 57" fill="none" xmlns="http://www.w3.org/2000/svg">
<path fill-rule="evenodd" clip-rule="evenodd" d="M57 9.58756C57 14.3408 53.5411 18.286 49.0029 19.0438C53.5411 19.8016 57 23.7469 57 28.5C57 33.2531 53.5411 37.1984 49.0029 37.9562C53.5411 38.714 57 42.6594 57 47.4124C57 52.7074 52.7074 57 47.4124 57C42.6594 57 38.714 53.5411 37.9562 49.0029C37.1984 53.5411 33.2531 57 28.5 57C23.7469 57 19.8016 53.5411 19.0438 49.0029C18.286 53.5411 14.3408 57 9.58756 57C4.29249 57 0 52.7074 0 47.4124C0 42.6594 3.4589 38.714 7.99694 37.9562C3.4589 37.1984 0 33.2531 0 28.5C0 23.7469 3.4589 19.8016 7.99694 19.0438C3.4589 18.286 0 14.3408 0 9.58756C0 4.29249 4.29249 0 9.58756 0C14.3408 0 18.286 3.4589 19.0438 7.99694C19.8016 3.4589 23.7469 0 28.5 0C33.2531 0 37.1984 3.4589 37.9562 7.99694C38.714 3.4589 42.6594 0 47.4124 0C52.7074 0 57 4.29249 57 9.58756ZM19.0438 11.1782C18.3724 15.1989 15.1989 18.3724 11.1782 19.0438C15.1989 19.7152 18.3724 22.8888 19.0438 26.9095C19.7152 22.8888 22.8888 19.7152 26.9095 19.0438C22.8888 18.3724 19.7152 15.1989 19.0438 11.1782ZM30.0905 19.0438C34.1112 18.3724 37.2848 15.1989 37.9562 11.1782C38.6276 15.1989 41.8012 18.3724 45.822 19.0438C41.8012 19.7152 38.6276 22.8888 37.9562 26.9095C37.2848 22.8888 34.1112 19.7152 30.0905 19.0438ZM37.9562 45.822C38.6276 41.8012 41.8012 38.6276 45.822 37.9562C41.8012 37.2848 38.6276 34.1112 37.9562 30.0905C37.2848 34.1112 34.1112 37.2848 30.0905 37.9562C34.1112 38.6276 37.2848 41.8012 37.9562 45.822ZM19.0438 30.0905C19.7152 34.1112 22.8888 37.2848 26.9095 37.9562C22.8888 38.6276 19.7152 41.8012 19.0438 45.822C18.3724 41.8012 15.1989 38.6276 11.1782 37.9562C15.1989 37.2848 18.3724 34.1112 19.0438 30.0905Z" fill="#343438"/>
</svg>
